{"accessors":[{"name":"116038-001-Thingy_Base_R03.001_116038-001-Thingy_Base_R03.001_Blue_positions","componentType":5126,"count":18600,"min":[-0.6545199751853943,-0.6767600178718567,-0.2799600064754486],"max":[0.7253199815750122,0.7030799984931946,0.19276000559329987],"type":"VEC3","bufferView":0,"byteOffset":0},{"name":"116038-001-Thingy_Base_R03.001_116038-001-Thingy_Base_R03.001_Blue_normals","componentType":5126,"count":18600,"min":[-1,-1,-1],"max":[1,1,1],"type":"VEC3","bufferView":0,"byteOffset":1219716},{"name":"116038-001-Thingy_Base_R03.001_116038-001-Thingy_Base_R03.001_Blue_0_indices","componentType":5125,"count":30582,"min":[0],"max":[18599],"type":"SCALAR","bufferView":1,"byteOffset":0},{"name":"116038-001-Thingy_Base_R03.001_116038-001-Thingy_Base_R03.001_Black_positions","componentType":5126,"count":83043,"min":[-0.7056400179862976,-0.7278800010681152,-0.2799600064754486],"max":[0.7764400243759155,0.7541999816894531,0.22339999675750732],"type":"VEC3","bufferView":0,"byteOffset":223200},{"name":"116038-001-Thingy_Base_R03.001_116038-001-Thingy_Base_R03.001_Black_normals","componentType":5126,"count":83043,"min":[-1,-1,-1],"max":[1,1,1],"type":"VEC3","bufferView":0,"byteOffset":1442916},{"name":"116038-001-Thingy_Base_R03.001_116038-001-Thingy_Base_R03.001_Black_0_indices","componentType":5125,"count":120144,"min":[0],"max":[83042],"type":"SCALAR","bufferView":1,"byteOffset":122328}],"asset":{"generator":"obj2gltf","version":"2.0"},"buffers":[{"name":"input","byteLength":3042336,"uri":"data:application/octet-stream;base64,"}],"bufferViews":[{"name":"bufferView_0","buffer":0,"byteLength":2439432,"byteOffset":0,"byteStride":12,"target":34962},{"name":"bufferView_1","buffer":0,"byteLength":602904,"byteOffset":2439432,"target":34963}],"materials":[{"name":"Blue","pbrMetallicRoughness":{"baseColorFactor":[0.5,0.5,0.5,1],"metallicFactor":0,"roughnessFactor":1},"emissiveFactor":[0,0,0],"alphaMode":"OPAQUE","doubleSided":false},{"name":"Black","pbrMetallicRoughness":{"baseColorFactor":[0.5,0.5,0.5,1],"metallicFactor":0,"roughnessFactor":1},"emissiveFactor":[0,0,0],"alphaMode":"OPAQUE","doubleSided":false}],"meshes":[{"name":"116038-001-Thingy_Base_R03.001_116038-001-Thingy_Base_R03.001_Blue","primitives":[{"attributes":{"POSITION":0,"NORMAL":1},"indices":2,"material":0,"mode":4}]},{"name":"116038-001-Thingy_Base_R03.001_116038-001-Thingy_Base_R03.001_Black","primitives":[{"attributes":{"POSITION":3,"NORMAL":4},"indices":5,"material":1,"mode":4}]}],"nodes":[{"name":"116038-001-Thingy_Base_R03.001","children":[1,2]},{"name":"116038-001-Thingy_Base_R03.001_116038-001-Thingy_Base_R03.001_Blue","mesh":0},{"name":"116038-001-Thingy_Base_R03.001_116038-001-Thingy_Base_R03.001_Black","mesh":1}],"scene":0,"scenes":[{"nodes":[0]}]}
